<svg xmlns="http://www.w3.org/2000/svg" viewBox="0 0 512 512" width="512" height="512">
  <defs>
    <linearGradient id="bg" x1="0%" y1="0%" x2="100%" y2="100%">
      <stop offset="0%" stop-color="#4F46E5"/>
      <stop offset="100%" stop-color="#1E1B4B"/>
    </linearGradient>
  </defs>

  <!-- Background -->
  <circle cx="256" cy="256" r="240" fill="url(#bg)"/>

  <!-- === Woodpecker - profile, geometric, inspired by Twitter bird simplicity === -->
  <!-- Built from overlapping circles + clean shapes -->

  <!-- Body - main circle, slightly right of center -->
  <circle cx="290" cy="275" r="80" fill="white"/>

  <!-- Head - overlapping circle, upper-left of body -->
  <circle cx="230" cy="210" r="58" fill="white"/>

  <!-- Smooth connection between head and body -->
  <path d="M 200 250 Q 230 280 270 270 Q 260 230 240 215 Q 215 235 200 250 Z" fill="white"/>

  <!-- Red crest - bold, 2 sharp triangles -->
  <polygon points="215,155 228,105 238,155" fill="#EF4444"/>
  <polygon points="232,152 248,110 255,158" fill="#DC2626"/>

  <!-- Beak - long, strong, chisel-tipped -->
  <polygon points="178,206 100,196 102,204 176,214" fill="#FBBF24"/>
  <polygon points="176,214 102,204 100,212 178,220" fill="#D97706"/>

  <!-- Eye -->
  <circle cx="212" cy="200" r="10" fill="#1E1B4B"/>
  <circle cx="209" cy="197" r="3.5" fill="white"/>

  <!-- Wing - elegant swoop -->
  <path d="M 270 240 C 330 220 380 250 370 310 C 365 340 340 355 315 350 C 330 310 320 270 280 255 Z" fill="#C7D2FE"/>

  <!-- Tail - 2 stiff feathers angled down -->
  <path d="M 340 330 L 380 410 L 365 405 L 330 335 Z" fill="#A5B4FC"/>
  <path d="M 330 340 L 360 425 L 345 420 L 320 345 Z" fill="#818CF8"/>

  <!-- === Tap ripples from beak tip === -->
  <circle cx="98" cy="204" r="3" fill="white" opacity="0.9"/>
  <path d="M 84 190 A 18 18 0 0 1 84 218" fill="none" stroke="white" stroke-width="3" opacity="0.65" stroke-linecap="round"/>
  <path d="M 68 180 A 30 30 0 0 1 68 228" fill="none" stroke="white" stroke-width="2.5" opacity="0.35" stroke-linecap="round"/>
  <path d="M 52 170 A 42 42 0 0 1 52 238" fill="none" stroke="white" stroke-width="2" opacity="0.15" stroke-linecap="round"/>
</svg>
